<?xml version="1.0" encoding="UTF-8" standalone="no"?>
<svg
   version="1.1"
   width="324"
   height="322"
   style="clip-rule:evenodd;fill-rule:evenodd;image-rendering:optimizeQuality;shape-rendering:geometricPrecision;text-rendering:geometricPrecision"
   id="svg66"
   sodipodi:docname="logo.svg"
   inkscape:export-filename="logo2.svg"
   inkscape:export-xdpi="96"
   inkscape:export-ydpi="96"
   xmlns:inkscape="http://www.inkscape.org/namespaces/inkscape"
   xmlns:sodipodi="http://sodipodi.sourceforge.net/DTD/sodipodi-0.dtd"
   xmlns="http://www.w3.org/2000/svg"
   xmlns:svg="http://www.w3.org/2000/svg">
  <defs
     id="defs66" />
  <sodipodi:namedview
     id="namedview66"
     pagecolor="#ffffff"
     bordercolor="#000000"
     borderopacity="0.25"
     inkscape:showpageshadow="2"
     inkscape:pageopacity="0.0"
     inkscape:pagecheckerboard="0"
     inkscape:deskcolor="#d1d1d1"
     showgrid="false"
     inkscape:export-bgcolor="#ffffff00" />
  <g
     id="g2">
    <path
       style="opacity:1"
       fill="#a2a2a2"
       d="m 126.5,17.5 c 10.174,-1.3232 20.507,-1.3232 31,0 -0.825,0.8857 -1.825,1.219 -3,1 -9.152,-0.9936 -18.485,-1.3269 -28,-1 z"
       id="path2" />
  </g>
  <g
     id="g3">
    <path
       style="opacity:1"
       fill="#3b3b3b"
       d="m 162.5,16.5 c 1.122,-0.6558 2.455,-0.9892 4,-1 4,0.5 8,1 12,1.5 -5.361,0.6086 -10.695,0.4419 -16,-0.5 z"
       id="path3" />
  </g>
  <g
     id="g4">
    <path
       style="opacity:1"
       fill="#010101"
       d="m 126.5,17.5 c 9.515,-0.3269 18.848,0.0064 28,1 -3.41,-0.0429 -6.743,0.4571 -10,1.5 4.421,0.4169 8.754,1.2502 13,2.5 2.254,-0.4306 4.421,-1.0972 6.5,-2 2.363,0.0275 3.863,1.1941 4.5,3.5 7.426,1.4279 14.759,2.4279 22,3 8.274,2.3966 16.274,5.3966 24,9 3.289,0.8816 6.623,1.5483 10,2 5.611,3.811 11.611,6.4776 18,8 -2.788,-1.7186 -5.121,-3.8852 -7,-6.5 2.504,1.6443 5.171,3.1443 8,4.5 10.579,9.2454 20.412,19.0788 29.5,29.5 0.29,-1.5441 0.956,-2.8774 2,-4 4.399,8.463 9.066,16.7964 14,25 0.333,2 0.667,4 1,6 1.667,1 3,2.333 4,4 3.168,7.338 4.835,15.005 5,23 2.658,2.805 3.158,5.971 1.5,9.5 0.936,3.911 2.102,7.745 3.5,11.5 0.091,9.757 0.924,19.424 2.5,29 -0.508,15.593 -3.508,30.593 -9,45 -2.889,10.068 -6.056,20.068 -9.5,30 -1.256,3.516 -3.256,6.516 -6,9 -0.256,3.057 -0.756,6.057 -1.5,9 -4.92,1.546 -9.92,3.046 -15,4.5 -15.367,12.747 -31.7,23.747 -49,33 -26.662,8.139 -53.995,11.139 -82,9 -11.568,-2.025 -22.902,-4.859 -34,-8.5 2.128,-1.129 4.461,-1.296 7,-0.5 27.245,7.991 54.912,9.157 83,3.5 -1.333,-0.333 -2.667,-0.667 -4,-1 -27.465,3.729 -54.465,2.062 -81,-5 -2.666,-0.433 -5.332,-0.933 -8,-1.5 -2.9801,-2.825 -6.3134,-5.158 -10,-7 -3.5457,-1.517 -7.2124,-2.85 -11,-4 -4.9675,-3.966 -9.6342,-8.299 -14,-13 -3.9456,-1.306 -7.6122,-3.139 -11,-5.5 -0.586,0.209 -1.086,0.543 -1.5,1 -1.5272,-1.721 -2.5272,-3.721 -3,-6 -0.3333,0.333 -0.6667,0.667 -1,1 -1.1711,-1.393 -2.6711,-2.227 -4.5,-2.5 -2.6191,-2.641 -4.4524,-5.807 -5.5,-9.5 -3,-3 -6,-6 -9,-9 -7.1051,-14.881 -13.1051,-30.214 -18,-46 -2.6115,-14.561 -3.6115,-29.228 -3,-44 0.66667,-0.667 1.33333,-1.333 2,-2 0.34714,4.794 1.18047,9.46 2.5,14 -0.61742,-0.111 -1.11742,-0.444 -1.5,-1 -0.79581,2.539 -0.62914,4.872 0.5,7 0.20095,3.008 0.5343,6.008 1,9 0.0976,2.119 0.9309,3.786 2.5,5 0.6953,-3.496 0.1953,-6.83 -1.5,-10 2.3022,-1.499 1.9689,-2.832 -1,-4 0.6925,-1.018 1.3592,-2.018 2,-3 0.9959,-0.086 1.8292,0.248 2.5,1 0.4994,-5.323 0.666,-10.656 0.5,-16 -0.2837,-3.132 -1.117,-6.132 -2.5,-9 -1.2419,-1.372 -2.7419,-2.372 -4.5,-3 -1.16441,-6.976 -1.33108,-13.976 -0.5,-21 2.5407,-3.223 4.0407,-6.89 4.5,-11 2.6773,-1.666 4.3439,-0.999 5,2 -1.21,2.693 -1.21,5.359 0,8 1.1507,1.231 2.3173,1.231 3.5,0 5.2502,-15.84 13.0835,-30.1738 23.5,-43 -0.1667,-0.3333 -0.3333,-0.6667 -0.5,-1 -2.9611,1.9121 -4.9611,4.5787 -6,8 -1.1131,-1.2111 -2.2798,-1.2111 -3.5,0 -3.3104,4.478 -6.8104,8.8114 -10.5,13 -0.8699,-0.608 -1.3699,-1.441 -1.5,-2.5 1.3743,-5.5833 3.7077,-10.75 7,-15.5 1.3734,0.1567 2.7068,-0.01 4,-0.5 4.2214,-5.6211 8.5547,-11.1211 13,-16.5 2.6395,-3.3062 5.6395,-6.3062 9,-9 1.7503,-1.1594 2.7503,-2.826 3,-5 2.8113,-0.3257 5.478,-1.1591 8,-2.5 10.3205,-8.3251 21.6539,-14.8251 34,-19.5 -1.2736,-0.6894 -1.2736,-1.5228 0,-2.5 1.746,-0.4709 3.413,-1.1376 5,-2 -0.608,-0.8699 -1.441,-1.3699 -2.5,-1.5 -1.44,0.6476 -2.94,0.9809 -4.5,1 6.554,-4.459 13.887,-6.6257 22,-6.5 1.658,-1.6625 3.658,-2.4959 6,-2.5 z"
       id="path4" />
  </g>
  <g
     id="g5">
    <path
       style="opacity:1"
       fill="#f4f4f4"
       d="m 163.5,21.5 c 2.483,0.23 2.983,0.8966 1.5,2 -1.03,-0.3361 -1.53,-1.0028 -1.5,-2 z"
       id="path5" />
  </g>
  <g
     id="g6">
    <path
       style="opacity:1"
       fill="#3f3f3f"
       d="m 195.5,22.5 c 0.997,-1.2125 1.997,-1.0458 3,0.5 -1.077,0.4696 -2.077,0.3029 -3,-0.5 z"
       id="path6" />
  </g>
  <g
     id="g7">
    <path
       style="opacity:1"
       fill="#3e3e3e"
       d="m 205.5,26.5 c 1.685,-1.344 3.352,-1.1773 5,0.5 -1.765,0.6397 -3.432,0.4731 -5,-0.5 z"
       id="path7" />
  </g>
  <g
     id="g8">
    <path
       style="opacity:1"
       fill="#8e8e8e"
       d="m 98.5,26.5 c -4.4429,2.4422 -9.1096,4.2755 -14,5.5 4.3035,-2.7432 8.9701,-4.5766 14,-5.5 z"
       id="path8" />
  </g>
  <g
     id="g9">
    <path
       style="opacity:1"
       fill="#dfdfdf"
       d="m 100.5,31.5 c 1.621,-1.6172 3.621,-2.7838 6,-3.5 1.135,-0.7494 2.135,-0.5827 3,0.5 -2.715,1.7643 -5.715,2.7643 -9,3 z"
       id="path9" />
  </g>
  <g
     id="g10">
    <path
       style="opacity:1"
       fill="#525252"
       d="m 235.5,39.5 c -3.639,-2.1552 -7.306,-4.3218 -11,-6.5 3.447,0.7121 6.781,2.0455 10,4 0.752,0.6708 1.086,1.5041 1,2.5 z"
       id="path10" />
  </g>
  <g
     id="g11">
    <path
       style="opacity:1"
       fill="#262626"
       d="m 67.5,41.5 c 0.7389,-0.131 1.4056,0.0357 2,0.5 -1.2598,2.9281 -3.4265,4.7614 -6.5,5.5 1.1378,-2.013 2.6378,-4.013 4.5,-6 z"
       id="path11" />
  </g>
  <g
     id="g12">
    <path
       style="opacity:1"
       fill="#161616"
       d="m 56.5,53.5 c -0.9584,0.4528 -1.7917,1.1195 -2.5,2 -0.4643,-0.5944 -0.631,-1.2611 -0.5,-2 0.7613,-0.8909 1.7613,-1.5576 3,-2 0.963,0.4698 0.963,1.1365 0,2 z"
       id="path12" />
  </g>
  <g
     id="g13">
    <path
       style="opacity:1"
       fill="#878787"
       d="m 53.5,53.5 c -0.131,0.7389 0.0357,1.4056 0.5,2 0.7083,-0.8805 1.5416,-1.5472 2.5,-2 0.6667,0 1.3333,0 2,0 -0.2497,2.174 -1.2497,3.8406 -3,5 0.131,-0.7389 -0.0357,-1.4056 -0.5,-2 -0.6667,1.3333 -1.3333,1.3333 -2,0 -0.7401,-1.2494 -0.5735,-2.2494 0.5,-3 z"
       id="path13" />
  </g>
  <g
     id="g14">
    <path
       style="opacity:1"
       fill="#161616"
       d="m 46.5,66.5 c -3.3761,3.3782 -7.0428,6.3782 -11,9 0.4907,-2.5103 1.4907,-4.8436 3,-7 3.9929,-3.8238 8.1596,-7.4905 12.5,-11 0.1667,0.3333 0.3333,0.6667 0.5,1 -1.72,2.7016 -3.3866,5.3682 -5,8 z"
       id="path14" />
  </g>
  <g
     id="g15">
    <path
       style="opacity:1"
       fill="#c5c5c5"
       d="m 46.5,66.5 c 0,0.3333 0,0.6667 0,1 -4.4453,5.3789 -8.7786,10.8789 -13,16.5 -1.2932,0.49 -2.6266,0.6567 -4,0.5 -0.2373,-1.291 0.096,-2.291 1,-3 -0.1068,1.8786 0.3932,2.2119 1.5,1 1.298,-1.4456 1.4646,-2.7789 0.5,-4 0.6667,-1.3333 1.6667,-2.3333 3,-3 3.9572,-2.6218 7.6239,-5.6218 11,-9 z"
       id="path15" />
  </g>
  <g
     id="g16">
    <path
       style="opacity:1"
       fill="#b7b7b7"
       d="m 49.5,73.5 c 0.7389,-0.131 1.4056,0.0357 2,0.5 -1.1217,2.1238 -2.6217,3.9571 -4.5,5.5 -0.1667,-0.5 -0.3333,-1 -0.5,-1.5 1.5997,-1.1233 2.5997,-2.6233 3,-4.5 z"
       id="path16" />
  </g>
  <g
     id="g17">
    <path
       style="opacity:1"
       fill="#1d1d1d"
       d="m 32.5,78.5 c 0.9646,1.2211 0.798,2.5544 -0.5,4 -1.1068,1.2119 -1.6068,0.8786 -1.5,-1 0.6667,-1 1.3333,-2 2,-3 z"
       id="path17" />
  </g>
  <g
     id="g18">
    <path
       style="opacity:1"
       fill="#444444"
       d="m 30.5,96.5 c 1.2125,0.9971 1.0458,1.9971 -0.5,3 -0.4696,-1.0768 -0.3029,-2.0768 0.5,-3 z"
       id="path18" />
  </g>
  <g
     id="g19">
    <path
       style="opacity:1"
       fill="#d5d5d5"
       d="m 141.5,63.5 c 2.687,-0.1641 5.354,0.0026 8,0.5 5.077,2.5799 9.744,5.7465 14,9.5 3.667,-2.8333 7.333,-5.6667 11,-8.5 3.62,-1.5787 7.286,-1.7454 11,-0.5 1.437,1.5212 2.104,3.3546 2,5.5 -0.768,4.5686 -1.768,9.0686 -3,13.5 5.721,0.5168 10.554,2.8501 14.5,7 0.868,4.1717 -0.632,7.3383 -4.5,9.5 -3.717,1.18 -7.384,2.513 -11,4 4.058,5.72 4.725,11.72 2,18 -3.3,1.879 -6.634,1.879 -10,0 -4.451,-2.783 -8.617,-5.95 -12.5,-9.5 -5.542,6.353 -12.375,9.853 -20.5,10.5 -2.454,-1.818 -3.454,-4.318 -3,-7.5 0.086,-4.088 1.086,-7.921 3,-11.5 -4.229,-1.115 -8.229,-2.781 -12,-5 -3.605,-3.3153 -3.939,-6.982 -1,-11 4.254,-2.2957 8.588,-4.2957 13,-6 -3.265,-6.1486 -3.598,-12.3153 -1,-18.5 z"
       id="path19" />
  </g>
  <g
     id="g20">
    <path
       style="opacity:1"
       fill="#171717"
       d="m 148.5,95.5 c 2.648,2.0659 4.982,4.566 7,7.5 -3.502,0.694 -6.836,0.194 -10,-1.5 1.059,-2.0336 2.059,-4.0336 3,-6 z"
       id="path20" />
  </g>
  <g
     id="g21">
    <path
       style="opacity:1"
       fill="#0e0e0e"
       d="m 176.5,95.5 c 2.169,1.8403 3.502,4.1737 4,7 -3.053,0.181 -6.053,0.348 -9,0.5 1.889,-2.382 3.555,-4.8818 5,-7.5 z"
       id="path21" />
  </g>
  <g
     id="g22">
    <path
       style="opacity:1"
       fill="#060606"
       d="m 182.5,84.5 c 5.544,0.9012 10.377,3.2346 14.5,7 0.667,1.3333 0.667,2.6667 0,4 -4.194,3.6867 -9.027,5.52 -14.5,5.5 -1.597,-2.5272 -2.93,-5.1939 -4,-8 1.579,-2.7372 2.912,-5.5705 4,-8.5 z"
       id="path22" />
  </g>
  <g
     id="g23">
    <path
       style="opacity:1"
       fill="#090909"
       d="m 142.5,84.5 c 6.891,6.1779 6.558,11.8445 -1,17 -17.391,-6.5215 -17.057,-12.1882 1,-17 z"
       id="path23" />
  </g>
  <g
     id="g24">
    <path
       style="opacity:1"
       fill="#151515"
       d="m 171.5,82.5 c 2.891,0.9025 5.891,1.2359 9,1 -0.341,3.0158 -1.507,5.6825 -3.5,8 -1.856,-3.0557 -3.689,-6.0557 -5.5,-9 z"
       id="path24" />
  </g>
  <g
     id="g25">
    <path
       style="opacity:1"
       fill="#131313"
       d="m 145.5,83.5 c 3.018,-0.1646 6.018,0.002 9,0.5 -1.475,2.3092 -3.142,4.4759 -5,6.5 -2.1,-1.8637 -3.433,-4.1971 -4,-7 z"
       id="path25" />
  </g>
  <g
     id="g26">
    <path
       style="opacity:1"
       fill="#0a0a0a"
       d="m 157.5,82.5 c 3.682,-0.1653 7.348,0.0014 11,0.5 3.588,3.2013 5.755,7.0347 6.5,11.5 -3.09,8.13 -8.923,10.963 -17.5,8.5 -2.167,-2.833 -4.333,-5.6667 -6.5,-8.5 -0.315,-1.4078 0.018,-2.7411 1,-4 2.054,-2.5472 3.887,-5.2139 5.5,-8 z"
       id="path26" />
  </g>
  <g
     id="g27">
    <path
       style="opacity:1"
       fill="#cecece"
       d="m 160.5,87.5 c 7.814,0.1247 9.814,3.6247 6,10.5 -9.088,0.4258 -11.088,-3.0742 -6,-10.5 z"
       id="path27" />
  </g>
  <g
     id="g28">
    <path
       style="opacity:1"
       fill="#060606"
       d="m 161.5,89.5 c 4.435,0.2521 5.768,2.4188 4,6.5 -6.161,0.878 -7.494,-1.2887 -4,-6.5 z"
       id="path28" />
  </g>
  <g
     id="g29">
    <path
       style="opacity:1"
       fill="#0b0b0b"
       d="m 162.5,77.5 c 1.495,-0.0852 2.495,0.5815 3,2 -1.574,1.1309 -3.241,1.2975 -5,0.5 0.881,-0.7083 1.547,-1.5416 2,-2.5 z"
       id="path29" />
  </g>
  <g
     id="g30">
    <path
       style="opacity:1"
       fill="#0a0a0a"
       d="m 178.5,64.5 c 6.497,-0.3201 8.664,2.6799 6.5,9 -1.145,2.9318 -1.978,5.9318 -2.5,9 -4.319,-0.5355 -8.652,-1.0355 -13,-1.5 -5.361,-3.9846 -5.028,-7.6512 1,-11 2.907,-1.6091 5.573,-3.4424 8,-5.5 z"
       id="path30" />
  </g>
  <g
     id="g31">
    <path
       style="opacity:1"
       fill="#050505"
       d="m 142.5,65.5 c 3.107,-0.1488 6.107,0.3512 9,1.5 2.667,2 5.333,4 8,6 1.507,0.8373 2.007,2.0039 1.5,3.5 -4.5,4.4841 -10,6.3174 -16.5,5.5 -2.767,-5.2972 -3.433,-10.7972 -2,-16.5 z"
       id="path31" />
  </g>
  <g
     id="g32">
    <path
       style="opacity:1"
       fill="#050505"
       d="m 143.5,104.5 c 4.677,0.335 9.344,0.835 14,1.5 1.519,1.351 2.852,2.851 4,4.5 -4.707,6.682 -11.041,10.182 -19,10.5 -0.622,-1.569 -0.956,-3.236 -1,-5 0.431,-3.886 1.097,-7.72 2,-11.5 z"
       id="path32" />
  </g>
  <g
     id="g33">
    <path
       style="opacity:1"
       fill="#090909"
       d="m 172.5,104.5 c 3.398,-0.32 6.732,0.013 10,1 3.164,5.092 3.497,10.258 1,15.5 -7.453,-0.896 -13.786,-4.229 -19,-10 1.713,-1.378 3.047,-3.045 4,-5 1.558,-0.21 2.891,-0.71 4,-1.5 z"
       id="path33" />
  </g>
  <g
     id="g34">
    <path
       style="opacity:1"
       fill="#171717"
       d="m 159.5,106.5 c 2.128,-1.129 4.461,-1.296 7,-0.5 -1.167,1.167 -2.333,2.333 -3.5,3.5 -1.039,-1.21 -2.206,-2.21 -3.5,-3 z"
       id="path34" />
  </g>
  <g
     id="g35">
    <path
       style="opacity:1"
       fill="#fbfbfb"
       d="m 93.5,141.5 c 0,22.333 0,44.667 0,67 14,0 28,0 42,0 0,9.333 0,18.667 0,28 -21.333,0 -42.6667,0 -64,0 0,-31.667 0,-63.333 0,-95 7.3333,0 14.6667,0 22,0 z"
       id="path35" />
  </g>
  <g
     id="g36">
    <path
       style="opacity:1"
       fill="#fbfbfb"
       d="m 187.5,141.5 c 10.464,-0.555 20.797,0.278 31,2.5 7.737,3.297 12.237,9.13 13.5,17.5 0.5,9.994 0.666,19.994 0.5,30 -6,0 -12,0 -18,0 4.06,-18.103 -2.94,-25.603 -21,-22.5 -3.833,1.167 -6.333,3.667 -7.5,7.5 -0.667,9 -0.667,18 0,27 1.167,3.833 3.667,6.333 7.5,7.5 4.333,0.667 8.667,0.667 13,0 5.152,-1.647 7.819,-5.147 8,-10.5 6,0 12,0 18,0 0.984,9.149 -0.516,17.816 -4.5,26 -4.759,5.815 -10.926,8.982 -18.5,9.5 -11.263,1.324 -22.263,0.324 -33,-3 -6.135,-3.427 -9.968,-8.594 -11.5,-15.5 -0.939,-20.043 -0.605,-40.043 1,-60 4.23,-9.357 11.397,-14.691 21.5,-16 z"
       id="path36" />
  </g>
  <g
     id="g37">
    <path
       style="opacity:1"
       fill="#121212"
       d="m 313.5,163.5 c 0.739,-0.131 1.406,0.036 2,0.5 -1.381,6.02 -2.047,5.853 -2,-0.5 z"
       id="path37" />
  </g>
  <g
     id="g38">
    <path
       style="opacity:1"
       fill="#8f8f8f"
       d="m 15.5,159.5 c 0.166,5.344 -6e-4,10.677 -0.5,16 -0.6708,-0.752 -1.5041,-1.086 -2.5,-1 1.5558,-4.891 2.5558,-9.891 3,-15 z"
       id="path38" />
  </g>
  <g
     id="g39">
    <path
       style="opacity:1"
       fill="#595959"
       d="m 10.5,171.5 c 1.0735,0.751 1.2401,1.751 0.5,3 -0.3333,-0.333 -0.6667,-0.667 -1,-1 -0.49001,1.293 -0.65668,2.627 -0.5,4 -1.12914,-2.128 -1.29581,-4.461 -0.5,-7 0.38258,0.556 0.88258,0.889 1.5,1 z"
       id="path39" />
  </g>
  <g
     id="g40">
    <path
       style="opacity:1"
       fill="#0a0a0a"
       d="m 303.5,233.5 c -0.934,-1.068 -1.268,-2.401 -1,-4 -1.291,-0.237 -2.291,0.096 -3,1 -3.459,1.072 -3.626,0.072 -0.5,-3 0.494,-1.634 0.66,-3.301 0.5,-5 0.617,-0.111 1.117,-0.444 1.5,-1 1.194,-6.916 3.194,-13.582 6,-20 1.325,-5.385 1.825,-10.718 1.5,-16 0.667,1 1.333,2 2,3 1.193,-0.47 1.86,-1.47 2,-3 0.582,-3.655 1.082,-7.322 1.5,-11 2.126,-6.357 3.626,-6.357 4.5,0 -0.108,0.942 -0.441,1.775 -1,2.5 2.352,0.576 3.352,2.076 3,4.5 -1.994,17.279 -6.827,33.946 -14.5,50 -0.995,0.566 -1.828,1.233 -2.5,2 z"
       id="path40" />
  </g>
  <g
     id="g41">
    <path
       style="opacity:1"
       fill="#818181"
       d="m 310.5,188.5 c -0.667,-1 -1.333,-2 -2,-3 0.648,-1.586 1.148,-3.253 1.5,-5 0.497,2.646 0.664,5.313 0.5,8 z"
       id="path41" />
  </g>
  <g
     id="g42">
    <path
       style="opacity:1"
       fill="#d9d9d9"
       d="m 306.5,177.5 c 0.667,2.667 1.333,5.333 2,8 0.325,5.282 -0.175,10.615 -1.5,16 -2.806,6.418 -4.806,13.084 -6,20 -0.383,0.556 -0.883,0.889 -1.5,1 -0.667,0 -1.333,0 -2,0 5.492,-14.407 8.492,-29.407 9,-45 z"
       id="path42" />
  </g>
  <g
     id="g43">
    <path
       style="opacity:1"
       fill="#868686"
       d="m 93.5,141.5 c 0.9974,21.827 1.3307,43.827 1,66 13.844,-0.329 27.51,0.004 41,1 -14,0 -28,0 -42,0 0,-22.333 0,-44.667 0,-67 z"
       id="path43" />
  </g>
  <g
     id="g44">
    <path
       style="opacity:1"
       fill="#fefffe"
       d="m 142.5,221.5 c 5,0 10,0 15,0 0,5 0,10 0,15 -5,0 -10,0 -15,0 0,-5 0,-10 0,-15 z"
       id="path44" />
  </g>
  <g
     id="g45">
    <path
       style="opacity:1"
       fill="#f9f9f9"
       d="m 238.5,221.5 c 5.333,0 10.667,0 16,0 0,5 0,10 0,15 -5.333,0 -10.667,0 -16,0 0,-5 0,-10 0,-15 z"
       id="path45" />
  </g>
  <g
     id="g46">
    <path
       style="opacity:1"
       fill="#696969"
       d="m 299.5,230.5 c 0.709,-0.904 1.709,-1.237 3,-1 -0.268,1.599 0.066,2.932 1,4 -0.06,0.543 -0.393,0.876 -1,1 -0.557,-1.832 -1.557,-3.165 -3,-4 z"
       id="path46" />
  </g>
  <g
     id="g47">
    <path
       style="opacity:1"
       fill="#dcdcdc"
       d="m 132.5,246.5 c 0.724,1.718 1.391,3.552 2,5.5 -1.333,0.667 -2.667,0.667 -4,0 1.692,-1.401 2.359,-3.234 2,-5.5 z"
       id="path47" />
  </g>
  <g
     id="g48">
    <path
       style="opacity:1"
       fill="#d1d1d1"
       d="m 232.5,247.5 c -0.589,1.873 0.078,3.54 2,5 -1,0 -2,0 -3,0 -0.351,-2.541 -0.018,-4.208 1,-5 z"
       id="path48" />
  </g>
  <g
     id="g49">
    <path
       style="opacity:1"
       fill="#929292"
       d="m 122.5,247.5 c 3.593,1.669 3.593,2.836 0,3.5 2.095,0.556 2.262,1.056 0.5,1.5 -3.072,-1.381 -3.239,-3.048 -0.5,-5 z"
       id="path49" />
  </g>
  <g
     id="g50">
    <path
       style="opacity:1"
       fill="#969696"
       d="m 154.5,251.5 c -3.374,3.774 -4.541,2.774 -3.5,-3 1.049,-1.017 2.216,-1.184 3.5,-0.5 1.291,1.292 1.291,2.458 0,3.5 z"
       id="path50" />
  </g>
  <g
     id="g51">
    <path
       style="opacity:1"
       fill="#8f8f8f"
       d="m 193.5,247.5 c 3.789,1.096 3.789,1.763 0,2 0.219,1.175 -0.114,2.175 -1,3 -1.184,-1.967 -0.851,-3.634 1,-5 z"
       id="path51" />
  </g>
  <g
     id="g52">
    <path
       style="opacity:1"
       fill="#999999"
       d="m 223.5,247.5 c 0.978,0.311 1.645,0.978 2,2 -4.189,2.76 -4.855,2.094 -2,-2 z"
       id="path52" />
  </g>
  <g
     id="g53">
    <path
       style="opacity:1"
       fill="#8f8f8f"
       d="m 102.5,246.5 c 0.864,1.188 1.864,2.355 3,3.5 -3.044,0.359 -3.378,1.026 -1,2 -2.107,0.854 -3.441,0.188 -4,-2 0.929,-1.077 1.596,-2.244 2,-3.5 z"
       id="path53" />
  </g>
  <g
     id="g54">
    <path
       style="opacity:1"
       fill="#757575"
       d="m 142.5,247.5 c 3.734,1.474 3.9,3.14 0.5,5 -3.073,-1.248 -3.24,-2.915 -0.5,-5 z"
       id="path54" />
  </g>
  <g
     id="g55">
    <path
       style="opacity:1"
       fill="#171717"
       d="m 154.5,251.5 c -1.837,-0.139 -2.17,-0.806 -1,-2 0.798,0.457 1.131,1.124 1,2 z"
       id="path55" />
  </g>
  <g
     id="g56">
    <path
       style="opacity:1"
       fill="#959595"
       d="m 173.5,247.5 c 0.978,0.311 1.645,0.978 2,2 -1.85,0.742 -2.516,1.742 -2,3 -2.661,-1.672 -2.661,-3.339 0,-5 z"
       id="path56" />
  </g>
  <g
     id="g57">
    <path
       style="opacity:1"
       fill="#646464"
       d="m 232.5,247.5 c 3.908,0.816 4.574,2.483 2,5 -1.922,-1.46 -2.589,-3.127 -2,-5 z"
       id="path57" />
  </g>
  <g
     id="g58">
    <path
       style="opacity:1"
       fill="#c2c2c2"
       d="m 213.5,250.5 c -0.651,0.591 -1.318,1.257 -2,2 -1.127,-1.769 -0.627,-3.103 1.5,-4 0.464,0.594 0.631,1.261 0.5,2 z"
       id="path58" />
  </g>
  <g
     id="g59">
    <path
       style="opacity:1"
       fill="#cacaca"
       d="m 93.5,246.5 c 0.9614,1.765 1.2947,3.765 1,6 -1.3333,0 -2.6667,0 -4,0 -0.4717,-2.858 0.5283,-4.858 3,-6 z"
       id="path59" />
  </g>
  <g
     id="g60">
    <path
       style="opacity:1"
       fill="#080808"
       d="m 91.5,249.5 c 1.837,0.139 2.1704,0.806 1,2 -0.7975,-0.457 -1.1309,-1.124 -1,-2 z"
       id="path60" />
  </g>
  <g
     id="g61">
    <path
       style="opacity:1"
       fill="#c8c8c8"
       d="m 113.5,248.5 c 1.367,1.593 1.034,2.926 -1,4 -0.333,-0.5 -0.667,-1 -1,-1.5 1.009,-0.355 1.676,-1.188 2,-2.5 z"
       id="path61" />
  </g>
  <g
     id="g62">
    <path
       style="opacity:1"
       fill="#b2b2b2"
       d="m 161.5,247.5 c 3.41,-0.116 4.744,1.55 4,5 -1.322,-0.17 -2.489,0.163 -3.5,1 -0.495,-1.973 -0.662,-3.973 -0.5,-6 z"
       id="path62" />
  </g>
  <g
     id="g63">
    <path
       style="opacity:1"
       fill="#080808"
       d="m 162.5,249.5 c 1.837,0.139 2.17,0.806 1,2 -0.798,-0.457 -1.131,-1.124 -1,-2 z"
       id="path63" />
  </g>
  <g
     id="g64">
    <path
       style="opacity:1"
       fill="#aaaaaa"
       d="m 181.5,248.5 c 0.658,0.898 1.324,1.898 2,3 1.904,-3.944 2.904,-3.61 3,1 -1.667,0 -3.333,0 -5,0 0,-1.333 0,-2.667 0,-4 z"
       id="path64" />
  </g>
  <g
     id="g65">
    <path
       style="opacity:1"
       fill="#b2b2b2"
       d="m 213.5,250.5 c 0.722,-0.418 1.222,-1.084 1.5,-2 0.781,1.444 0.614,2.777 -0.5,4 -0.798,-0.457 -1.131,-1.124 -1,-2 z"
       id="path65" />
  </g>
  <g
     id="g66">
    <path
       style="opacity:1"
       fill="#e1e1e1"
       d="m 105.5,305.5 c 26.535,7.062 53.535,8.729 81,5 1.333,0.333 2.667,0.667 4,1 -28.088,5.657 -55.755,4.491 -83,-3.5 -2.539,-0.796 -4.872,-0.629 -7,0.5 -0.9734,-0.487 -1.9734,-0.987 -3,-1.5 2.865,-0.183 5.531,-0.683 8,-1.5 z"
       id="path66" />
  </g>
</svg>
